<svg width="21" height="18" viewBox="0 0 21 18" fill="none" xmlns="http://www.w3.org/2000/svg">
<path d="M20.667 2.797C19.9181 3.12898 19.1235 3.34674 18.31 3.443C19.1671 2.93062 19.8084 2.1237 20.114 1.173C19.3084 1.65107 18.4271 1.98792 17.508 2.169C17.1242 1.75927 16.6604 1.4328 16.1451 1.20985C15.6299 0.98691 15.0744 0.872254 14.513 0.873005C11.864 0.873005 9.918 3.345 10.516 5.911C8.88456 5.82937 7.28853 5.40551 5.83156 4.66694C4.37459 3.92838 3.08924 2.89162 2.059 1.624C1.53474 2.52748 1.37426 3.5967 1.61017 4.61428C1.84608 5.63185 2.46068 6.52138 3.329 7.10201C2.67736 7.08209 2.03995 6.90653 1.47 6.59C1.425 8.491 2.787 10.27 4.76 10.665C4.15572 10.8291 3.52194 10.853 2.907 10.735C3.1689 11.5506 3.67935 12.2639 4.36685 12.775C5.05436 13.286 5.8845 13.5693 6.741 13.585C5.02117 14.9341 2.83625 15.5455 0.666 15.285C2.54228 16.4904 4.72589 17.1302 6.956 17.128C14.574 17.128 18.878 10.694 18.618 4.923C19.4213 4.34212 20.1148 3.62291 20.666 2.799L20.667 2.797Z" fill="#F3603C"/>
</svg>
